<?xml version="1.0" standalone="no"?>
<!DOCTYPE svg PUBLIC "-//W3C//DTD SVG 20010904//EN"
 "http://www.w3.org/TR/2001/REC-SVG-20010904/DTD/svg10.dtd">
<svg version="1.0" xmlns="http://www.w3.org/2000/svg"
 width="1755.000000pt" height="1755.000000pt" viewBox="0 0 1755.000000 1755.000000"
 preserveAspectRatio="xMidYMid meet">

<g transform="translate(0.000000,1755.000000) scale(0.100000,-0.100000)"
fill="#4527ce" stroke="none">
<path d="M8505 14583 c-1071 -50 -2088 -384 -2970 -973 -1210 -809 -2072
-2036 -2421 -3445 -24 -98 -48 -183 -52 -187 -16 -16 -148 -38 -228 -38 -168
0 -341 47 -537 147 -120 61 -283 167 -395 257 -40 32 -75 56 -78 53 -6 -6 50
-163 107 -295 196 -458 523 -817 964 -1059 371 -205 821 -329 1395 -385 176
-17 929 -17 1135 0 389 32 731 72 1155 134 337 50 544 57 705 24 289 -57 614
-221 901 -451 647 -520 1308 -1445 1963 -2745 142 -280 760 -1588 811 -1715
60 -148 100 -328 100 -452 l0 -42 100 44 c365 162 757 395 1110 659 405 302
848 748 1162 1166 267 357 525 806 696 1210 675 1600 605 3418 -192 4955 -280
540 -613 993 -1056 1436 -458 458 -915 790 -1485 1079 -422 214 -812 358
-1275 469 -505 122 -1100 179 -1615 154z m3494 -2620 c89 -676 19 -1370 -209
-2053 -316 -951 -913 -1763 -1800 -2449 l-77 -60 -87 133 c-285 439 -651 836
-1036 1125 -63 47 -126 93 -139 101 -22 15 -10 16 150 16 429 2 844 139 1264
419 312 207 637 524 905 880 246 327 490 748 690 1190 79 173 242 577 290 718
13 37 27 67 30 67 4 0 12 -39 19 -87z"/>
<path d="M1658 10315 c-79 -317 -113 -591 -112 -910 1 -515 97 -919 329 -1390
302 -613 824 -1159 1431 -1495 l111 -61 59 -132 c181 -405 474 -871 788 -1257
428 -525 1024 -1029 1601 -1355 66 -37 170 -97 232 -132 323 -185 548 -270
1248 -473 390 -113 605 -181 772 -246 458 -176 717 -400 788 -679 19 -77 19
-252 0 -347 -20 -94 -59 -214 -102 -307 -18 -41 -32 -76 -30 -78 2 -2 35 6 73
18 377 116 636 444 719 909 22 126 31 432 16 583 -36 370 -202 1011 -363 1407
-275 672 -709 1350 -1119 1745 -304 294 -667 539 -1134 766 -630 307 -1318
489 -1850 489 -865 1 -1508 130 -2044 411 -614 322 -1042 856 -1245 1556 -80
276 -116 531 -125 873 l-6 255 -37 -150z"/>
</g>
</svg>
